<?xml version="1.0" encoding="utf-8"?>
<!-- Generator: Adobe Illustrator 27.8.0, SVG Export Plug-In . SVG Version: 6.00 Build 0)  -->
<svg version="1.1" id="Livello_1" xmlns="http://www.w3.org/2000/svg" xmlns:xlink="http://www.w3.org/1999/xlink" x="0px" y="0px"
	 viewBox="0 0 384 512" style="enable-background:new 0 0 384 512;" xml:space="preserve">
<style type="text/css">
	.st0{fill:#00A777;}
</style>
<path class="st0" d="M336,64h-80c0-35.3-28.7-64-64-64s-64,28.7-64,64H48C21.5,64,0,85.5,0,112v352c0,26.5,21.5,48,48,48h288
	c26.5,0,48-21.5,48-48V112C384,85.5,362.5,64,336,64z M192,40c13.3,0,24,10.7,24,24s-10.7,24-24,24s-24-10.7-24-24S178.7,40,192,40z
	 M313.2,271.8l-143,141.8c-4.7,4.7-12.3,4.6-17-0.1l-82.6-83.3c-4.7-4.7-4.6-12.3,0.1-17L99.1,285c4.7-4.7,12.3-4.6,17,0.1l46,46.4
	l106-105.2c4.7-4.7,12.3-4.6,17,0.1l28.2,28.4C318,259.6,317.9,267.1,313.2,271.8z"/>
</svg>
